<?xml version="1.0" encoding="UTF-8" ?>
<!DOCTYPE svg PUBLIC "-//W3C//DTD SVG 1.1//EN" "http://www.w3.org/Graphics/SVG/1.1/DTD/svg11.dtd">
<svg width="1200pt" height="896pt" viewBox="0 0 1200 896" version="1.1" xmlns="http://www.w3.org/2000/svg">
<g id="#ffffffff">
</g>
<g id="#dd282bff">
<path fill="#dd282b" opacity="1.00" d=" M 580.65 59.62 C 589.86 46.45 606.13 39.29 622.01 39.61 C 734.34 39.58 846.67 39.60 959.00 39.60 C 1018.36 39.72 1077.73 39.36 1137.09 39.76 C 1066.74 161.70 995.81 283.33 925.11 405.07 C 923.55 407.83 921.89 410.53 920.12 413.15 C 907.15 392.67 894.13 372.23 881.50 351.55 C 878.08 345.58 873.78 339.97 871.80 333.31 C 870.39 328.89 872.84 324.67 874.94 320.94 C 910.10 260.80 945.35 200.70 980.50 140.55 C 982.43 137.21 984.39 133.88 986.03 130.38 C 877.34 130.31 768.64 130.36 659.95 130.34 C 650.79 130.17 641.64 132.99 634.00 137.98 C 627.91 141.94 623.86 148.15 620.34 154.34 C 589.25 208.19 558.04 261.97 526.79 315.73 C 516.60 332.95 506.94 350.49 496.59 367.62 C 436.41 471.42 376.15 575.17 315.94 678.96 C 284.75 732.79 253.28 786.46 222.33 840.43 C 218.61 846.66 215.39 853.21 211.02 859.02 C 204.77 867.30 194.30 871.69 184.05 871.57 C 158.67 871.77 133.27 871.66 107.88 871.64 C 109.28 867.98 111.41 864.68 113.36 861.31 C 174.18 757.67 234.39 653.67 294.88 549.84 C 334.94 481.21 374.80 412.47 414.83 343.82 C 465.86 255.90 517.48 168.30 568.22 80.21 C 572.20 73.25 576.15 66.26 580.65 59.62 Z" />
<path fill="#dd282b" opacity="1.00" d=" M 724.82 194.90 C 728.09 189.51 730.62 183.58 734.72 178.75 C 803.44 296.55 871.92 414.49 940.62 532.31 C 981.97 603.60 1023.57 674.76 1064.87 746.08 C 1089.12 788.00 1113.82 829.67 1137.92 871.67 C 943.25 871.65 748.58 871.71 553.92 871.65 C 560.46 859.14 567.85 847.07 574.93 834.86 C 609.63 775.50 644.27 716.10 678.75 656.61 C 709.36 604.44 739.29 551.87 770.28 499.93 C 772.96 502.63 774.72 506.04 776.84 509.17 C 783.84 519.83 790.99 530.40 797.80 541.18 C 803.68 550.31 809.20 559.68 815.52 568.52 C 818.39 572.91 821.52 578.05 820.29 583.53 C 819.01 588.05 816.16 591.89 813.87 595.93 C 784.88 646.17 755.61 696.25 726.34 746.33 C 720.82 756.36 714.87 766.14 709.05 776.00 C 707.04 779.05 707.22 783.49 710.09 785.95 C 711.95 787.63 714.55 787.78 716.94 787.77 C 803.31 787.68 889.68 787.83 976.05 787.70 C 981.00 788.17 985.08 782.68 983.21 778.08 C 981.27 773.48 978.24 769.45 975.85 765.08 C 937.53 699.08 899.17 633.11 860.99 567.02 C 853.23 554.60 846.56 541.55 839.00 529.01 C 831.11 515.83 823.83 502.30 815.85 489.17 C 810.02 479.57 804.70 469.68 799.06 459.97 C 789.71 444.54 781.19 428.61 771.79 413.20 C 759.62 391.68 747.08 370.36 734.73 348.93 C 733.54 350.05 732.58 351.36 731.84 352.80 C 712.11 388.18 691.07 422.81 670.98 457.98 C 655.68 484.35 640.21 510.62 624.97 537.02 C 615.73 552.23 607.30 567.91 598.10 583.14 C 547.26 670.32 496.37 757.46 445.77 844.78 C 442.26 850.77 439.12 857.16 433.97 861.96 C 427.72 867.56 419.63 871.83 411.05 871.61 C 384.43 871.72 357.81 871.65 331.19 871.66 C 371.58 801.36 412.61 731.43 453.34 661.32 C 543.74 505.79 634.21 350.31 724.82 194.90 Z" />
</g>
</svg>