<svg xmlns="http://www.w3.org/2000/svg" viewBox="60 -10 1130 1130" width="32" height="32">
<path fill="#dd282b" d="M580.65 59.62C589.86 46.45 606.13 39.29 622.01 39.61 734.34 39.58 846.67 39.6 959 39.6 1018.36 39.72 1077.73 39.36 1137.09 39.76 1066.74 161.7 995.81 283.33 925.11 405.07 923.55 407.83 921.89 410.53 920.12 413.15 907.15 392.67 894.13 372.23 881.5 351.55 878.08 345.58 873.78 339.97 871.8 333.31 870.39 328.89 872.84 324.67 874.94 320.94 910.1 260.8 945.35 200.7 980.5 140.55 982.43 137.21 984.39 133.88 986.03 130.38 877.34 130.31 768.64 130.36 659.95 130.34 650.79 130.17 641.64 132.99 634 137.98 627.91 141.94 623.86 148.15 620.34 154.34 589.25 208.19 558.04 261.97 526.79 315.73 516.6 332.95 506.94 350.49 496.59 367.62 436.41 471.42 376.15 575.17 315.94 678.96 284.75 732.79 253.28 786.46 222.33 840.43 218.61 846.66 215.39 853.21 211.02 859.02 204.77 867.3 194.3 871.69 184.05 871.57 158.67 871.77 133.27 871.66 107.88 871.64 109.28 867.98 111.41 864.68 113.36 861.31 174.18 757.67 234.39 653.67 294.88 549.84 334.94 481.21 374.8 412.47 414.83 343.82 465.86 255.9 517.48 168.3 568.22 80.21 572.2 73.25 576.15 66.26 580.65 59.62Z"/>
<path fill="#dd282b" d="M724.82 194.9C728.09 189.51 730.62 183.58 734.72 178.75 803.44 296.55 871.92 414.49 940.62 532.31 981.97 603.6 1023.57 674.76 1064.87 746.08 1089.12 788 1113.82 829.67 1137.92 871.67 943.25 871.65 748.58 871.71 553.92 871.65 560.46 859.14 567.85 847.07 574.93 834.86 609.63 775.5 644.27 716.1 678.75 656.61 709.36 604.44 739.29 551.87 770.28 499.93 772.96 502.63 774.72 506.04 776.84 509.17 783.84 519.83 790.99 530.4 797.8 541.18 803.68 550.31 809.2 559.68 815.52 568.52 818.39 572.91 821.52 578.05 820.29 583.53 819.01 588.05 816.16 591.89 813.87 595.93 784.88 646.17 755.61 696.25 726.34 746.33 720.82 756.36 714.87 766.14 709.05 776 707.04 779.05 707.22 783.49 710.09 785.95 711.95 787.63 714.55 787.78 716.94 787.77 803.31 787.68 889.68 787.83 976.05 787.7 981 788.17 985.08 782.68 983.21 778.08 981.27 773.48 978.24 769.45 975.85 765.08 937.53 699.08 899.17 633.11 860.99 567.02 853.23 554.6 846.56 541.55 839 529.01 831.11 515.83 823.83 502.3 815.85 489.17 810.02 479.57 804.7 469.68 799.06 459.97 789.71 444.54 781.19 428.61 771.79 413.2 759.62 391.68 747.08 370.36 734.73 348.93 733.54 350.05 732.58 351.36 731.84 352.8 712.11 388.18 691.07 422.81 670.98 457.98 655.68 484.35 640.21 510.62 624.97 537.02 615.73 552.23 607.3 567.91 598.1 583.14 547.26 670.32 496.37 757.46 445.77 844.78 442.26 850.77 439.12 857.16 433.97 861.96 427.72 867.56 419.63 871.83 411.05 871.61 384.43 871.72 357.81 871.65 331.19 871.66 371.58 801.36 412.61 731.43 453.34 661.32 543.74 505.79 634.21 350.31 724.82 194.9Z"/>
</svg>
